<svg version="1.2" xmlns="http://www.w3.org/2000/svg" viewBox="0 0 56 61" width="56" height="61"><style>.a{fill:#fff}</style><path class="a" d="m28.2 17.9c3 0 5.9 1.2 8 3.3 2.1 2.1 3.3 5 3.3 8h1.8c0-3.5-1.3-6.9-3.8-9.3-2.5-2.5-5.8-3.9-9.3-3.9-3.5 0-6.8 1.4-9.2 3.9-2.5 2.4-3.9 5.8-3.9 9.3h1.9c0-3 1.2-5.9 3.3-8 2.1-2.1 4.9-3.3 7.9-3.3z"/><path class="a" d="m41.3 31h-1.8v1.9h1.8z"/><path fill-rule="evenodd" class="a" d="m32.9 25.5c1.2 1.2 1.9 2.9 1.9 4.6 0 1.3-0.4 2.6-1.1 3.6-0.7 1.1-1.8 2-3 2.5-1.2 0.4-2.5 0.6-3.8 0.3-1.2-0.2-2.4-0.9-3.3-1.8-0.9-0.9-1.6-2.1-1.8-3.3-0.3-1.3-0.1-2.6 0.4-3.8 0.5-1.2 1.3-2.2 2.4-3 1.1-0.7 2.3-1.1 3.6-1.1 1.8 0 3.4 0.7 4.7 2zm-1.4 7.9c0.9-0.9 1.4-2.1 1.4-3.3 0-0.9-0.3-1.8-0.8-2.6-0.5-0.8-1.2-1.4-2.1-1.7-0.8-0.4-1.8-0.5-2.7-0.3-0.9 0.2-1.7 0.6-2.4 1.3-0.6 0.6-1.1 1.5-1.3 2.4-0.2 0.9-0.1 1.8 0.3 2.7 0.4 0.8 1 1.6 1.7 2.1 0.8 0.5 1.7 0.8 2.6 0.8 1.3 0 2.5-0.5 3.3-1.4z"/><path class="a" d="m32 39.5h-1.9v1.8h1.9z"/><path class="a" d="m35.7 37.6h-1.9v1.9h1.9z"/><path class="a" d="m39.5 34.8h-1.9v1.9h1.9z"/><path class="a" d="m17 31h-1.9v1.9h1.9z"/><path class="a" d="m47.9 43.2h-1.9v1.9h1.9z"/><path class="a" d="m28.2 2q-0.2 0-0.3 0.1-0.2 0-0.3 0.2l-3.8 3.7 1.3 1.3 2.2-2.1v5.2h1.9v-5.2l2.1 2.1 1.3-1.3-3.7-3.7q-0.3-0.3-0.7-0.3z"/><path class="a" d="m42 6.7q-0.2 0-0.4 0.1-0.1 0-0.3 0.2l-3.7 3.7 1.3 1.3 2.2-2.1v5.2h1.8v-5.2l2.2 2.1 1.3-1.3-3.7-3.7q-0.3-0.3-0.7-0.3z"/><path class="a" d="m13.9 6.7q-0.2 0-0.4 0.1-0.1 0-0.3 0.2l-3.7 3.7 1.3 1.3 2.2-2.1v5.2h1.8v-5.2l2.2 2.1 1.3-1.3-3.7-3.7q-0.3-0.3-0.7-0.3z"/><path fill-rule="evenodd" class="a" d="m2.3 57.9q-0.3-0.3-0.3-0.6v-3.8q0-0.4 0.3-0.7 0.3-0.2 0.6-0.2h1.9v-12.2q0-0.4 0.3-0.7 0.3-0.2 0.6-0.2h7.4c-1.7-2.7-2.6-5.8-2.7-9 0-3.2 0.7-6.3 2.3-9.1 1.5-2.7 3.8-5 6.5-6.6 2.7-1.7 5.9-2.5 9-2.5 3.2 0 6.3 0.8 9 2.5 2.8 1.6 5 3.9 6.6 6.6 1.5 2.8 2.3 5.9 2.2 9.1-0.1 3.2-1 6.3-2.6 9h7.3q0.4 0 0.7 0.2 0.2 0.3 0.2 0.7v12.2h1.9q0.4 0 0.7 0.2 0.2 0.3 0.2 0.7v3.8q0 0.3-0.2 0.6-0.3 0.3-0.7 0.3h-50.6q-0.3 0-0.6-0.3zm11.8-20.4c1.2 2.3 3 4.2 5.1 5.7h18c2.3-1.5 4.1-3.7 5.3-6.1 1.2-2.5 1.8-5.2 1.6-8-0.1-2.7-1-5.3-2.5-7.6-1.5-2.3-3.5-4.2-6-5.5-2.4-1.3-5.1-1.9-7.9-1.8-2.7 0.1-5.4 0.8-7.7 2.3-2.4 1.4-4.3 3.4-5.6 5.8-1.4 2.4-2.1 5.1-2.1 7.8 0 2.6 0.6 5.1 1.8 7.4zm-7.4 15.1h43.1v-11.3h-7.8q-0.8 1-1.8 1.9h3.9v1.9h-31.8v-1.9h3.9q-0.9-0.9-1.8-1.9h-7.7zm-2.8 3.8h48.7v-1.9h-48.7z"/></svg>