<svg width="1200" height="418" viewBox="0 0 1200 418" fill="none" xmlns="http://www.w3.org/2000/svg">
<path fill-rule="evenodd" clip-rule="evenodd" d="M596.558 151H615.349V247.293H674.5V264H525.5V247.293H539.945V211.293H558.737V227.293H568.251V181H587.043V237.293H596.558V151ZM601.05 155.5V241.793H582.55V185.5H572.744V231.793H554.244V215.793H544.437V251.793H529.992V259.5H670.008V251.793H610.857V155.5H601.05Z" fill="#19363A"/>
<path d="M792.345 335.542V290.705H826.805V298.775H801.633V309.024H818.222V316.838H801.633V327.471H827.062V335.542H792.345Z" fill="#19363A"/>
<path d="M768.468 336.182C765.137 336.182 762.02 335.606 759.116 334.453C756.213 333.257 753.672 331.613 751.494 329.521C749.359 327.428 747.672 324.994 746.434 322.219C745.238 319.4 744.64 316.368 744.64 313.123C744.64 309.835 745.238 306.803 746.434 304.028C747.672 301.209 749.38 298.754 751.558 296.661C753.736 294.569 756.255 292.946 759.116 291.793C762.02 290.598 765.137 290 768.468 290C770.945 290 773.336 290.342 775.642 291.025C777.948 291.708 780.083 292.669 782.047 293.907C784.054 295.146 785.762 296.64 787.171 298.391L780.894 304.604C779.272 302.597 777.393 301.081 775.258 300.056C773.165 299.031 770.902 298.519 768.468 298.519C766.461 298.519 764.582 298.903 762.831 299.672C761.081 300.398 759.565 301.423 758.284 302.747C757.003 304.028 755.999 305.565 755.273 307.358C754.547 309.109 754.184 311.031 754.184 313.123C754.184 315.173 754.547 317.094 755.273 318.888C755.999 320.639 757.024 322.176 758.348 323.5C759.671 324.781 761.209 325.784 762.959 326.51C764.753 327.236 766.696 327.599 768.788 327.599C771.137 327.599 773.336 327.108 775.386 326.126C777.435 325.144 779.25 323.734 780.83 321.898L786.915 327.919C785.506 329.627 783.819 331.101 781.855 332.339C779.891 333.577 777.756 334.538 775.45 335.221C773.187 335.862 770.859 336.182 768.468 336.182Z" fill="#19363A"/>
<path d="M698.393 335.542V290.705H707.232L729.522 319.656V290.705H738.233V335.542H730.035L707.168 305.565V335.542H698.393Z" fill="#19363A"/>
<path d="M647.188 335.542L665.635 290.705H676.332L694.587 335.542H684.53L679.983 323.756H661.471L656.859 335.542H647.188ZM664.354 316.326H677.164L670.759 299.8L664.354 316.326Z" fill="#19363A"/>
<path d="M603.502 335.542V290.705H612.341L634.632 319.656V290.705H643.343V335.542H635.144L612.277 305.565V335.542H603.502Z" fill="#19363A"/>
<path d="M586.05 335.542V290.705H595.338V335.542H586.05Z" fill="#19363A"/>
<path d="M545.141 335.542V290.705H579.794V298.775H554.429V309.344H571.275V317.158H554.429V335.542H545.141Z" fill="#19363A"/>
<path d="M514.804 335.542V290.705H524.092V335.542H514.804Z" fill="#E47344"/>
<path d="M485.984 336.246C482.653 336.246 479.557 335.67 476.696 334.517C473.835 333.321 471.316 331.677 469.138 329.585C466.96 327.45 465.252 324.994 464.014 322.219C462.818 319.4 462.22 316.368 462.22 313.123C462.22 309.878 462.818 306.867 464.014 304.092C465.252 301.273 466.939 298.818 469.074 296.726C471.209 294.59 473.707 292.946 476.568 291.793C479.472 290.598 482.568 290 485.856 290C489.571 290 493.072 290.747 496.36 292.242C499.648 293.694 502.36 295.743 504.495 298.391L498.026 304.348C496.488 302.426 494.674 300.974 492.581 299.992C490.489 299.01 488.247 298.519 485.856 298.519C483.849 298.519 481.991 298.903 480.283 299.672C478.575 300.398 477.08 301.423 475.799 302.747C474.518 304.028 473.515 305.565 472.789 307.358C472.106 309.109 471.764 311.031 471.764 313.123C471.764 315.215 472.127 317.158 472.853 318.952C473.579 320.745 474.582 322.304 475.863 323.628C477.187 324.909 478.703 325.934 480.411 326.702C482.162 327.428 484.062 327.791 486.112 327.791C488.247 327.791 490.169 327.407 491.877 326.638C493.585 325.827 495.015 324.717 496.168 323.307C497.364 321.856 498.154 320.233 498.538 318.439H485.279V310.369H508.466V313.187C508.466 316.518 507.89 319.592 506.737 322.411C505.627 325.186 504.068 327.62 502.061 329.713C500.054 331.762 497.684 333.364 494.951 334.517C492.218 335.67 489.229 336.246 485.984 336.246Z" fill="#E47344"/>
<path d="M415.247 335.542L433.694 290.705H444.391L462.646 335.542H452.589L448.042 323.756H429.53L424.919 335.542H415.247ZM432.413 316.326H445.223L438.818 299.8L432.413 316.326Z" fill="#E47344"/>
<path d="M373.5 335.542V290.705H382.788V310.753L402.388 290.705H413.725L391.947 312.034L414.75 335.542H402.324L382.788 314.724V335.542H373.5Z" fill="#E47344"/>
<path opacity="0.1" d="M3 417.5V230.5H127V297.5H219V101H338.5V139.5H431V3H553V106H645.5V3H767.5V139.5H859.5V101H984.5V297.5H1075V230.5H1197.5V417.5" stroke="#19363A" stroke-width="5"/>
</svg>
