<svg version="1.2" xmlns="http://www.w3.org/2000/svg" viewBox="0 0 93 69" width="93" height="69"><style>.a{fill:#e47344}</style><path fill-rule="evenodd" class="a" d="m41.2 38.3c0 4.9-3.6 8.9-8 8.9-4.4 0-7.9-4-7.9-8.9 0-4.9 3.6-8.9 7.9-8.9 4.4 0 8 4 8 8.9zm-8 6c2.9 0 5.1-2.6 5.1-6 0-3.3-2.2-6-5.1-6-2.8 0-5.1 2.7-5.1 6 0 3.3 2.3 6.1 5.1 6.1z"/><path fill-rule="evenodd" class="a" d="m92.2 53.7q0.1 0.3 0 0.6-0.1 0.3-0.3 0.5c-3.7 3.9-8.1 7-13 9.1-4.5 1.9-9.2 3.2-14.1 3.8h-0.1q-0.4 0-0.7-0.2-0.4-0.2-0.6-0.5l-3.8-6.6q-6.4 1.1-13 1.1-6.5 0-13-1.1l-3.8 6.6q-0.2 0.4-0.6 0.6-0.4 0.2-0.8 0.1c-4.8-0.6-9.6-1.9-14.1-3.8-4.9-2.1-9.3-5.2-12.9-9.1q-0.2-0.2-0.3-0.5-0.1-0.3-0.1-0.6c0-0.3 0.7-7.7 4.4-22.6 2-7.7 4.7-15.1 8.2-22.1q0.2-0.3 0.5-0.6 5.2-3 10.8-5.1c7-2.6 10.4-2.6 10.5-2.6 0.3 0 0.7 0.2 0.9 0.4 0.3 0.2 0.5 0.5 0.5 0.9l0.4 2.9c6.3-0.6 12.5-0.6 18.8 0l0.4-2.9c0-0.4 0.2-0.7 0.5-0.9 0.2-0.2 0.6-0.4 0.9-0.4 0.2 0 3.5 0.1 10.5 2.6q5.6 2.1 10.8 5.1 0.3 0.3 0.5 0.6c3.5 7 6.3 14.4 8.2 22.1 3.8 14.9 4.4 22.3 4.4 22.6zm-2.8-0.4c-0.3-2-1.2-9.3-4.3-21.5-1.9-7.3-4.5-14.4-7.8-21.1q-4.8-2.8-10-4.7-4-1.5-8.3-2.3l-0.2 1.7c2.9 0.8 9.9 2.8 15.4 6.8 0.3 0.3 0.5 0.6 0.6 1 0 0.3 0 0.7-0.3 1-0.2 0.3-0.5 0.5-0.9 0.6-0.4 0-0.8 0-1.1-0.3-6.3-4.5-14.9-6.4-15.5-6.6q-5.2-0.6-10.4-0.6-5.2 0-10.3 0.6c-0.6 0.2-9.3 2.1-15.6 6.6q-0.2 0.2-0.5 0.3-0.3 0-0.6 0c-0.3-0.1-0.7-0.3-0.9-0.6-0.2-0.3-0.3-0.7-0.2-1q0-0.3 0.1-0.6 0.2-0.2 0.4-0.4c5.6-4 12.6-6 15.5-6.8l-0.3-1.7q-4.2 0.8-8.2 2.3-5.2 1.9-10 4.7c-3.3 6.7-5.9 13.8-7.8 21.1-3.1 12.2-4.1 19.5-4.3 21.5 3.3 3.4 7.2 6.1 11.5 8 4 1.6 8.2 2.8 12.4 3.5l2.9-5c-3.3-0.9-10.3-3.2-15.5-8-0.3-0.2-0.5-0.6-0.5-1 0-0.4 0.1-0.7 0.4-1 0.2-0.3 0.6-0.5 0.9-0.5 0.4 0 0.8 0.1 1.1 0.4 6.4 5.8 16 7.7 16.1 7.7 4.4 0.9 8.9 1.3 13.4 1.2 4.5 0.1 9-0.4 13.4-1.2 0.1 0 9.7-1.9 16.2-7.8q0.2-0.2 0.4-0.3 0.3 0 0.6 0 0.3 0 0.5 0.1 0.3 0.1 0.5 0.3 0.2 0.3 0.3 0.5 0.1 0.3 0 0.6 0 0.3-0.1 0.5-0.1 0.3-0.3 0.5c-5.3 4.8-12.3 7.1-15.6 8l2.9 4.9c4.3-0.6 8.4-1.8 12.4-3.5 4.3-1.8 8.3-4.5 11.6-7.9z"/><path fill-rule="evenodd" class="a" d="m68 38.3c0 4.9-3.6 8.9-8 8.9-4.4 0-8-4-8-8.9 0-4.9 3.6-8.9 8-8.9 4.4 0 8 4 8 8.9zm-8 6c2.8 0 5.1-2.6 5.1-6 0-3.3-2.3-6-5.1-6-2.8 0-5.1 2.7-5.1 6 0 3.3 2.2 6.1 5.1 6.1z"/></svg>