<svg width="40" height="40" viewBox="0 0 40 40" fill="none" xmlns="http://www.w3.org/2000/svg">
<rect x="1.07031" y="1.00024" width="37.9296" height="37.9296" rx="11" stroke="#E47344" stroke-width="2"/>
<path d="M13.6928 16.9386C13.6925 16.9386 13.693 16.9386 13.6928 16.9386H8.62024C8.27029 16.9384 7.9865 17.2194 7.98627 17.5662C7.98627 17.5659 7.98627 17.5665 7.98627 17.5662V32.6466C7.98604 32.9934 8.26959 33.2746 8.61947 33.2749C8.61923 33.2749 8.61978 33.2749 8.61947 33.2749H13.692C14.042 33.2751 14.3258 32.9941 14.326 32.6472C14.326 32.647 14.326 32.6475 14.326 32.6472V17.5669C14.3262 17.2201 14.0427 16.9388 13.6928 16.9386ZM13.058 32.0182H9.25421V18.1953H13.058V32.0182ZM27.0054 16.9386C25.6299 16.9387 24.2928 17.3886 23.2016 18.2186V17.5669C23.2018 17.2201 22.9183 16.9388 22.5684 16.9386C22.5681 16.9386 22.5686 16.9386 22.5684 16.9386H17.4958C17.1459 16.9384 16.8621 17.2194 16.8619 17.5662C16.8619 17.5659 16.8619 17.5665 16.8619 17.5662V32.6466C16.8616 32.9934 17.1452 33.2746 17.4951 33.2749C17.4949 33.2749 17.4954 33.2749 17.4951 33.2749H22.5676C22.9176 33.2751 23.2013 32.9941 23.2016 32.6472C23.2016 32.647 23.2016 32.6475 23.2016 32.6472V25.7351C23.2016 24.694 24.0531 23.8501 25.1035 23.8501C26.1539 23.8501 27.0054 24.694 27.0054 25.7351V32.6466C27.0052 32.9934 27.2887 33.2746 27.6387 33.2749C27.6385 33.2749 27.6389 33.2749 27.6387 33.2749H32.7112C33.0611 33.2751 33.3449 32.9941 33.3451 32.6472C33.3451 32.647 33.3451 32.6475 33.3451 32.6472V23.2218C33.341 19.7534 30.505 16.9427 27.0054 16.9386ZM32.0772 32.0182H28.2734V25.7351C28.2734 24 26.8542 22.5935 25.1035 22.5935C23.3528 22.5935 21.9336 24 21.9336 25.7351V32.0182H18.1298V18.1953H21.9336V19.7071C21.9336 19.9741 22.104 20.2119 22.3584 20.2999C22.6122 20.3905 22.896 20.3099 23.063 20.0998C24.7906 17.9299 27.966 17.5589 30.1555 19.2712C31.3751 20.225 32.0839 21.6821 32.0772 23.2218V32.0182ZM11.6227 8.14447C11.4736 8.13412 11.3239 8.13335 11.1747 8.14217C9.26102 8.01263 7.60373 9.44513 7.47302 11.3417C7.46776 11.4181 7.46513 11.4945 7.46498 11.5709C7.44849 13.4514 8.97329 14.9891 10.8707 15.0054C10.9482 15.0061 11.0256 15.0041 11.1029 14.9996H11.1388C13.0488 15.1321 14.7055 13.7048 14.8391 11.8118C14.9728 9.91882 13.5327 8.27693 11.6227 8.14447ZM11.5789 13.7466C11.4325 13.7599 11.285 13.7588 11.1388 13.743H11.1029C9.89058 13.8353 8.83236 12.9362 8.73919 11.7347C8.64601 10.5333 9.55317 9.48448 10.7655 9.39213C10.9018 9.38178 11.0388 9.384 11.1747 9.39881C12.3861 9.28821 13.4586 10.1718 13.5703 11.3723C13.6819 12.573 12.7904 13.636 11.5789 13.7466Z" fill="#E47344"/>
</svg>
