<svg version="1.2" xmlns="http://www.w3.org/2000/svg" viewBox="0 0 61 54" width="61" height="54"><style>.a{fill:#19363a}</style><path fill-rule="evenodd" class="a" d="m58.1 11.9q0.1 0.2 0.1 0.3v3.5c0 1.2-0.6 2.4-1.5 3.2v20c0 1.4-1.2 2.6-2.6 2.6h-15.1v3.8h4.1c0.4 0 0.7 0.4 0.7 0.8v3.8c0 0.4-0.3 0.8-0.7 0.8h-16.1c-0.4 0-0.7-0.4-0.7-0.8 0-0.4 0.3-0.7 0.7-0.7h15.3v-2.3h-13.7c-0.4 0-0.8-0.4-0.8-0.8 0-0.4 0.4-0.8 0.8-0.8h1.6v-3.8h-1.5l-3.2 8.7c-0.1 0.3-0.4 0.5-0.7 0.5h-16.3c-0.4 0-0.7-0.2-0.8-0.5l-3.7-10.1c-1.1-0.2-2-1.2-2-2.4v-1.2c0-1.4 1.1-2.4 2.4-2.4h3.3l1.6-4.8c0.1-0.4 0.5-0.6 0.9-0.4 0.4 0.1 0.7 0.5 0.5 0.9l-1.3 4.3h14.5l-1.4-4.3c-0.1-0.4 0.1-0.8 0.5-0.9 0.4-0.2 0.9 0 1 0.4l1.5 4.8h3.4c1.3 0 2.4 1 2.4 2.4v1.2c0 1-0.7 1.9-1.5 2.2h24.3c0.6 0 1-0.4 1-1v-1.9h-21.6c-0.5 0-0.8-0.3-0.8-0.7 0-0.4 0.3-0.8 0.8-0.8h18.7v-15.3c-1.6-0.2-3.1-1-3.9-2.2-0.9 1.3-2.6 2.2-4.6 2.2-1.9 0-3.6-0.9-4.5-2.2-1 1.3-2.7 2.2-4.6 2.2-1.9 0-3.6-0.9-4.5-2.2-1 1.3-2.7 2.2-4.6 2.2-1.9 0-3.6-0.9-4.6-2.2-0.8 1.2-2.2 2-3.9 2.2v11.6c0 0.4-0.4 0.7-0.8 0.7-0.4 0-0.8-0.3-0.8-0.7v-11.7q-0.7-0.1-1.3-0.3v11.9c0 0.5-0.3 0.8-0.8 0.8-0.4 0-0.7-0.3-0.7-0.8v-12.8c-1-0.8-1.6-2-1.6-3.2v-3.5q0-0.1 0.1-0.3l4.5-9.5c0.1-0.2 0.4-0.4 0.7-0.4h36.7c0.3 0 0.5 0.2 0.6 0.4l4.5 9.5zm-53.7 26.7h24.5c0.4 0 0.8-0.4 0.8-0.9v-1.2c0-0.5-0.4-0.9-0.8-0.9h-24.5c-0.5 0-0.9 0.4-0.9 0.9v1.2c0 0.5 0.4 0.9 0.9 0.9zm23.2 1.5h-21.9l3.3 9.1h15.3zm9.9 1.3h-5.8v3.9h5.8zm15-37.9h-6.5l2.8 7.9h7.4zm-23.1 7.9l1.1-7.9h-5.6l-2.8 7.9zm1.5 0h7.4l-1-7.9h-5.3zm16.3 0l-2.9-7.9h-5.5l1 7.9zm-34.2 0h7.4l2.9-7.9h-6.5zm7.1 4.2v-2.7h-7.6v2.7c0 1.6 1.8 3 3.8 3 2.1 0 3.8-1.4 3.8-3zm9.1 0v-2.7h-7.5v2.7c0 1.6 1.7 3 3.8 3 2 0 3.8-1.4 3.7-3zm9.2 0v-2.7h-7.6v2.7c0 1.6 1.7 3 3.8 3 2 0 3.8-1.4 3.8-3zm9.1 0v-2.7h-7.6v2.7c0 1.6 1.7 3 3.8 3 2.1 0 3.8-1.4 3.8-3zm5.3 3c2.1 0 3.8-1.4 3.8-3v-2.7h-7.6v2.7c0 1.6 1.8 3 3.8 3zm2.3 1.1q-0.6 0.2-1.4 0.3v15.4h1.4zm-42.7 27.6c0.1 0.4-0.1 0.8-0.6 0.9q0 0-0.1 0c-0.4 0-0.7-0.3-0.8-0.6l-1.1-5.8c-0.1-0.4 0.2-0.8 0.6-0.9 0.4-0.1 0.8 0.2 0.9 0.6zm11-5.4l-1.2 5.7c0 0.4-0.4 0.6-0.7 0.6q-0.1 0-0.2 0c-0.4-0.1-0.7-0.5-0.6-0.9l1.1-5.7c0.1-0.4 0.5-0.7 1-0.6 0.4 0.1 0.6 0.5 0.6 0.9zm-6.1 0v5.4c0 0.4-0.3 0.8-0.7 0.8-0.5 0-0.8-0.4-0.8-0.8v-5.4c0-0.4 0.3-0.7 0.8-0.7 0.4 0 0.7 0.3 0.7 0.7zm12.8-10c-0.4 0-0.7-0.4-0.7-0.8v-8.8c0-0.4 0.3-0.8 0.7-0.8h8.9c0.4 0 0.7 0.4 0.7 0.8v8.8c0 0.4-0.3 0.8-0.7 0.8zm0.7-1.6h7.3v-7.3h-1.5v2.9c0 0.4-0.3 0.7-0.7 0.7h-2.9c-0.4 0-0.7-0.3-0.7-0.7v-2.9h-1.5zm3-5.2h1.3v-2h-1.3z"/></svg>