<svg width="42" height="38" viewBox="0 0 42 38" fill="none" xmlns="http://www.w3.org/2000/svg">
<path d="M40.8912 0.71115C40.0125 -0.0139515 38.8049 -0.200542 37.7466 0.225238L1.91246 14.6218C0.336159 15.2675 -0.415676 17.0626 0.233131 18.6311C0.568704 19.4423 1.23668 20.0719 2.06871 20.3614L9.79922 23.0359L13.9887 36.8202C13.9971 36.8483 14.023 36.8654 14.0339 36.8924C14.0772 37.0023 14.1405 37.1035 14.2205 37.1907C14.2503 37.2258 14.2828 37.2587 14.3174 37.2891C14.4218 37.3754 14.543 37.4391 14.6734 37.4763C14.6933 37.4821 14.7066 37.4998 14.7269 37.5044L14.7386 37.5039L14.7444 37.5063C14.8112 37.5211 14.8793 37.5283 14.9476 37.5277C15.0368 37.5245 15.1253 37.5092 15.2103 37.4821C15.2267 37.4776 15.2433 37.4789 15.2594 37.4735C15.4046 37.4226 15.5357 37.3389 15.6425 37.2289C15.655 37.2165 15.6739 37.2143 15.6858 37.2012L21.7132 30.583L30.5062 37.3586C31.0405 37.7743 31.6992 38.0001 32.3773 38C33.8441 37.9998 35.1103 36.9773 35.4125 35.5491L41.938 3.66938C42.1641 2.5666 41.7617 1.42957 40.8912 0.71115ZM16.1762 25.6501L14.7618 32.4902L11.812 22.782L26.4419 15.2009L16.4477 25.1467C16.3095 25.2843 16.2151 25.4594 16.1762 25.6501ZM33.4536 35.1487C33.377 35.515 33.1143 35.8155 32.7603 35.9417C32.4143 36.0741 32.0237 36.015 31.7329 35.7862L22.2055 28.445C21.7931 28.1272 21.2043 28.1789 20.854 28.5636L16.6627 33.1655L18.0746 26.344L32.4517 12.0348C32.8424 11.6467 32.843 11.017 32.453 10.6282C32.1445 10.3205 31.671 10.2479 31.2837 10.4488L10.5569 21.1898L2.72301 18.48C2.29601 18.3401 2.0056 17.9457 2.00035 17.4984C1.97972 17.048 2.24767 16.6339 2.66832 16.4663L38.4966 2.0717C38.8709 1.91366 39.3028 1.97986 39.6119 2.24274C39.9195 2.48983 40.0608 2.8884 39.9771 3.27288L33.4536 35.1487Z" fill="#E47344"/>
</svg>
